<svg xmlns="http://www.w3.org/2000/svg" viewBox="0 0 512 512"><defs><linearGradient id="a" x1="6.693%" x2="99.126%" y1="60.312%" y2="26.973%"><stop offset="0%" stop-color="#002D9C"/><stop offset="100%" stop-color="#0043CE"/></linearGradient></defs><g fill="none" fill-rule="evenodd" transform="translate(4 2.374)"><ellipse cx="251.988" cy="253.762" fill="url(#a)" rx="251.497" ry="253.723"/><g fill="#FFF"><path d="M308.553418 94.2215544C309.088187 94.2451484 309.6013 94.2929571 310.13607 94.3407659 310.392626 94.3649808 310.67084 94.3885747 310.970155 94.4363835 313.236957 94.7232361 316.914819 95.4403677 321.020829 97.1621045 321.683877 97.4489572 322.368027 97.7600246 323.052177 98.0946861 330.729983 102.063435 337.016721 108.782741 340.930592 117.079737 341.101074 117.462207 341.272667 117.868271 341.443705 118.274956 343.561127 123.582972 344.993288 130.039019 345.314261 137.929329L345.35702 142.974086 344.799189 226.189173C344.789978 227.563314 343.673417 228.672415 342.299245 228.672415L278.261019 228.671554 278.261461 205.388792 278.186777 195.825566C277.62616 180.868091 275.124724 168.629515 271.426402 158.567235 271.127665 157.796292 270.827958 157.026526 270.530191 156.301486 263.694163 140.573069 252.713646 127.835439 239.303468 120.311976 238.10852 119.677566 236.913573 119.087883 235.755483 118.544103 234.467216 117.957803 233.20308 117.432956 231.973025 116.96325 236.13845 108.114521 243.044963 101.093995 251.434115 97.3055308 251.541292 97.2577221 251.648468 97.2099133 251.755088 97.1621045 255.369644 95.7036264 259.53896 94.6754273 264.329676 94.2215544L308.553418 94.2215544zM245.465829 41.8248085C245.465829 64.5550868 263.892075 82.9813335 286.622353 82.9813335 309.352011 82.9813335 327.778878 64.5550868 327.778878 41.8248085 327.778878 30.9095065 323.442561 20.4412476 315.724237 12.7229246 308.005914 5.00398061 297.537656.668283574 286.622353.668283574 263.892075.668283574 245.465829 19.0945303 245.465829 41.8248085z" transform="translate(79.087 113.924)"/><path d="M76.6898496,94.2215544 C77.2246194,94.2451484 77.7377319,94.2929571 78.2725017,94.3407659 C78.5290579,94.3649808 78.8072715,94.3885747 79.1065871,94.4363835 C81.3733892,94.7232361 85.0512505,95.4403677 89.1572609,97.1621045 C89.8203088,97.4489572 90.5044588,97.7600246 91.1886087,98.0946861 C98.866415,102.063435 105.153153,108.782741 109.067024,117.079737 C109.237506,117.462207 109.409099,117.868271 109.580137,118.274956 C111.697559,123.582972 113.12972,130.039019 113.450693,137.929329 L113.493452,142.974086 L112.935621,226.189173 C112.926409,227.563314 111.809849,228.672415 110.435677,228.672415 L46.3974513,228.671554 L46.3978927,205.388792 L46.3232085,195.825566 C45.7625921,180.868091 43.2611564,168.629515 39.5628338,158.567235 C39.264097,157.796292 38.9643903,157.026526 38.6666234,156.301486 C31.8305945,140.573069 20.8500776,127.835439 7.43989955,120.311976 C6.24495239,119.677566 5.05000523,119.087883 3.89191521,118.544103 C2.60364807,117.957803 1.3395116,117.432956 0.109457023,116.96325 C4.27488237,108.114521 11.1813954,101.093995 19.5705474,97.3055308 C19.6777235,97.2577221 19.7848996,97.2099133 19.8915203,97.1621045 C23.5060756,95.7036264 27.675392,94.6754273 32.4661077,94.2215544 L76.6898496,94.2215544 Z" transform="matrix(-1 0 0 1 192.69 113.924)"/><path d="M18.8823896 41.8248085C18.8823896 64.5550868 37.3086363 82.9813335 60.0389146 82.9813335 82.7685719 82.9813335 101.19544 64.5550868 101.19544 41.8248085 101.19544 30.9095065 96.8591216 20.4412476 89.1407986 12.7229246 81.4224755 5.00398061 70.9542166.668283574 60.0389146.668283574 37.3086363.668283574 18.8823896 19.0945303 18.8823896 41.8248085zM126.657708 75.3842998C126.657708 102.213481 148.406721 123.962493 175.235901 123.962493 202.064349 123.962493 223.814095 102.213481 223.814095 75.3842998 223.814095 62.5006646 218.695818 50.1446869 209.585666 41.0345351 200.475514 31.9236504 188.119537 26.8061064 175.235901 26.8061064 148.406721 26.8061064 126.657708 48.5551189 126.657708 75.3842998zM105.482915 187.661962C105.760172 182.243214 106.694852 174.397241 109.673242 166.495571 109.74862 166.326281 109.824652 166.156991 109.875123 165.986968 114.670435 154.642334 123.202501 145.611331 133.702243 140.869742 133.828746 140.813312 133.955249 140.756882 134.081097 140.700452 138.347457 138.97897 143.268617 137.765358 148.923233 137.229639L201.121748 137.229639C201.752951 137.257488 202.358592 137.313918 202.989796 137.370348 203.292616 137.398929 203.621 137.426778 203.97429 137.483208 206.64986 137.821788 210.990942 138.668238 215.837381 140.700452 216.619995 141.039033 217.427516 141.406194 218.235037 141.801204 227.297366 146.48563 234.717778 154.416614 239.337429 164.209789 239.538654 164.661229 239.74119 165.140518 239.94307 165.620539 242.442322 171.885738 244.132742 179.505991 244.511595 188.819144L244.562065 194.773611 244.562065 318.066765C244.562065 319.447477 243.442777 320.566765 242.062065 320.566765L174.997255 320.566765 174.997255 320.566765 108.033385 320.566765C106.653044 320.565815 105.533909 319.447106 105.532435 318.066765L105.482915 187.661962 105.482915 187.661962z" transform="translate(79.087 113.924)"/></g></g></svg>